<svg id="Layer_1" data-name="Layer 1" xmlns="http://www.w3.org/2000/svg" viewBox="0 0 962 851.53"><defs><style>.cls-1{fill:#fff;}</style></defs><title>aeiton_stroke_logo</title><path class="cls-1" d="M972.71,76.56v5a17.64,17.64,0,0,1,5.29.5,15.42,15.42,0,0,1-.79,4.67l-.79,2.89c-3.33,12.23-6.78,24.87-12.08,36.18-17.86,38.09-32.16,66.76-46.36,93-7.22,13.31-17.06,23.47-29.26,30.21-11.7,6.46-25.56,9.8-41.22,9.93-32.37.26-67.87.38-111.75.38-22.54,0-45.45,0-67.61-.06s-45.08-.06-67.63-.06H454.79c-119,0-217.51,77.81-245.13,193.6-15.25,63.93-3,133.21,33.49,190.09s94.32,96.69,158.65,109.39c26.78,5.28,54,5.31,80.24,5.34h6.77c37.58.09,75.79.1,112.74.11h30.4a28.52,28.52,0,0,1,4.3.24,24.76,24.76,0,0,1-1.08,3.55q-1,2.68-1.95,5.38c-3.22,9-6.55,18.22-11.23,26.23-16,27.36-32.38,54-48.73,79.15-20.54,31.59-51.09,48.48-90.82,50.2-10.23.44-20.38.67-30.16.67-65,0-121.74-9.68-173.54-29.6a363.66,363.66,0,0,1-114-69.86c-31.54-28.53-59.48-63.88-83-105.07C43.57,651.84,24.84,578.88,26.06,501.69A426.26,426.26,0,0,1,372.62,89.26a443.29,443.29,0,0,1,82.88-7.63c30.71,0,64.18,0,105.34,0H697.5l5,0h270.2v-5m0,0H697.5v0H560.83q-52.67,0-105.34,0a445.75,445.75,0,0,0-83.81,7.72A431.18,431.18,0,0,0,21.06,501.61C19.83,579.77,38.58,653.18,77.39,721c46.53,81.35,111,143.08,199.55,177.12,56.66,21.78,115.53,29.93,175.34,29.93q15.15,0,30.38-.67c39.65-1.71,72.65-18.39,94.8-52.47q25.39-39.06,48.86-79.35c5.86-10,9.52-21.41,13.55-32.41,3.21-8.74,1.53-10.51-7.91-10.51q-71.56,0-143.13-.12c-28.78-.07-57.51.38-86.05-5.25C270.59,721.22,183.2,585.25,214.53,453.89,241.46,341,338.71,264.14,454.79,264.13H600.51c45.08,0,90.16.12,135.24.12q55.89,0,111.79-.38c32.28-.26,59-13.63,74.83-42.75,16.55-30.51,31.76-61.78,46.5-93.22,5.9-12.59,9.47-26.37,13.16-39.87,2.56-9.36.26-11.48-9.32-11.48Z" transform="translate(-21 -76.56)"/><path class="cls-1" d="M725.3,403.22h91.07a35.18,35.18,0,0,1,3.74.15,27.82,27.82,0,0,1-.77,3.09q-1.1,3.7-2.19,7.41c-4.22,14.37-8.58,29.24-14.81,42.76C787,490,770,523.39,753.68,555.67l-2.11,4.16c-14.09,27.79-39,44.23-78.41,51.75a119.15,119.15,0,0,1-21.75,1.63c-28.21.06-56,.07-79.48.07H515l-44.71,0h-.13c-27.43,0-52.19-7.62-73.61-22.66-28.83-20.24-45.22-50.56-44.95-83.18S368.77,444.74,398,425c21.25-14.4,45.64-21.7,72.5-21.7h.26c20.43,0,42.55.05,69.61.05H643v-.07H725.3m0-5H638v.07l-97.68,0q-34.8,0-69.6-.05h-.27c-27.39,0-52.61,7.18-75.31,22.56C331,464.26,330.3,550.21,393.68,594.7c22.89,16.07,48.54,23.57,76.49,23.57h.14l44.71,0h56.92q39.74,0,79.49-.07a123.07,123.07,0,0,0,22.68-1.72c34.85-6.64,65-21,81.93-54.4,17.36-34.25,34.79-68.49,50.85-103.35,7.45-16.17,12.14-33.69,17.24-50.84,2.52-8.47.91-9.67-7.76-9.67Z" transform="translate(-21 -76.56)"/></svg>