<svg id="Layer_1" data-name="Layer 1" xmlns="http://www.w3.org/2000/svg" xmlns:xlink="http://www.w3.org/1999/xlink" viewBox="0 0 962 851.53"><defs><style>.cls-1{fill:url(#linear-gradient);}.cls-2{fill:url(#linear-gradient-2);}</style><linearGradient id="linear-gradient" x1="21" y1="502.33" x2="983" y2="502.33" gradientUnits="userSpaceOnUse"><stop offset="0" stop-color="#ff1500"/><stop offset="1" stop-color="#ff00b1"/></linearGradient><linearGradient id="linear-gradient-2" x1="346.61" y1="508.25" x2="825.21" y2="508.25" xlink:href="#linear-gradient"/></defs><title>aeiton_stroke_logo2</title><path class="cls-1" d="M970.76,87.56l-.13.48c-3.27,12-6.64,24.37-11.72,35.21-17.81,38-32.06,66.56-46.2,92.64-13.19,24.31-35.14,36.76-65.25,37-32.36.26-67.85.38-111.7.38-22.53,0-45.44,0-67.6-.06s-45.08-.06-67.63-.06H454.79c-121.84,0-222.69,79.67-251,198.21-15.62,65.51-3.13,136.48,34.28,194.73s96.61,99,162.53,112c27.35,5.4,54.82,5.42,81.39,5.45h6.76c37.61.09,75.85.1,112.82.11H628l-.41,1.14c-3.27,9.1-6.36,17.7-10.76,25.23-15.93,27.28-32.28,53.83-48.58,78.9-19.42,29.87-48.37,45.85-86.05,47.47-10.15.44-20.21.66-29.9.66-64.22,0-120.29-9.55-171.39-29.2a357.68,357.68,0,0,1-112.1-68.71c-31.07-28.1-58.61-63-81.86-103.6A410.47,410.47,0,0,1,32.06,501.78,420.26,420.26,0,0,1,373.75,95.15a437.27,437.27,0,0,1,81.75-7.52c30.75,0,64.24,0,105.39,0H697.5l11,0H970.76m1.95-11H697.5v0H560.89q-52.7,0-105.4,0a445.75,445.75,0,0,0-83.81,7.72A431.18,431.18,0,0,0,21.06,501.61C19.83,579.77,38.58,653.18,77.39,721c46.53,81.35,111,143.08,199.55,177.12,56.66,21.78,115.53,29.93,175.34,29.93q15.15,0,30.38-.67c39.65-1.71,72.65-18.39,94.8-52.47q25.39-39.06,48.86-79.35c5.86-10,9.52-21.41,13.55-32.41,3.21-8.74,1.53-10.51-7.91-10.51q-71.56,0-143.13-.12c-28.78-.07-57.51.38-86.05-5.25C270.59,721.22,183.2,585.25,214.53,453.89,241.46,341,338.71,264.14,454.79,264.13H600.52c45.08,0,90.15.12,135.23.12q55.89,0,111.79-.38c32.28-.26,59-13.63,74.83-42.75,16.55-30.51,31.76-61.78,46.5-93.22,5.9-12.59,9.47-26.37,13.16-39.87,2.56-9.36.26-11.48-9.32-11.48Z" transform="translate(-21 -76.56)"/><path class="cls-2" d="M724.91,409.22h87.35l-.87,3c-4.16,14.17-8.46,28.82-14.5,41.94-15.32,33.26-32.22,66.59-48.56,98.82l-2.11,4.16A79.69,79.69,0,0,1,716,589.95c-11.69,7.17-26.07,12.31-44,15.72a113.73,113.73,0,0,1-20.64,1.52c-28.22.06-56,.07-79.47.07H515l-44.7,0h-.14C444,607.27,420.39,600,400,585.7c-27.2-19.09-42.65-47.6-42.39-78.22s16.19-58.9,43.72-77.55c20.52-13.9,43.14-20.66,69.14-20.66h.25c20.46,0,42.58.05,69.63.05H649v-.07h75.89m0-11H638v.07l-97.68,0q-34.8,0-69.61-.05h-.27c-27.39,0-52.61,7.18-75.31,22.56C331,464.26,330.3,550.21,393.68,594.7c22.89,16.07,48.54,23.57,76.49,23.57h.14l44.7,0h56.91q39.75,0,79.5-.07a123.06,123.06,0,0,0,22.68-1.72c34.85-6.64,65-21,81.93-54.4,17.36-34.25,34.79-68.49,50.85-103.35,7.45-16.17,12.14-33.69,17.24-50.84,2.52-8.47.91-9.67-7.76-9.67Z" transform="translate(-21 -76.56)"/></svg>