<?xml version="1.0" encoding="utf-8"?>
<!-- Generator: Adobe Illustrator 21.0.2, SVG Export Plug-In . SVG Version: 6.00 Build 0)  -->
<svg version="1.1" id="Capa_1" xmlns="http://www.w3.org/2000/svg" xmlns:xlink="http://www.w3.org/1999/xlink" x="0px" y="0px"
	 viewBox="0 0 470 470" style="enable-background:new 0 0 470 470;" xml:space="preserve">
<style type="text/css">
	.st0{fill:#FFFFFF;}
</style>
<g>
	<path class="st0" d="M357.7,0H112.3C94.8,0,80.5,14.3,80.5,31.8v406.5c0,17.5,14.3,31.8,31.8,31.8h245.4
		c17.5,0,31.8-14.3,31.8-31.8V31.8C389.5,14.3,375.2,0,357.7,0z M95.5,79.7h279v310.6h-279V79.7z M112.3,15h245.4
		c9.2,0,16.8,7.5,16.8,16.8v32.9h-279V31.8C95.5,22.5,103,15,112.3,15z M357.7,455H112.3c-9.2,0-16.8-7.5-16.8-16.8v-32.9h279v32.9
		C374.5,447.5,367,455,357.7,455z"/>
	<path class="st0" d="M296.2,47.8c4.4,0,8-3.6,8-8s-3.6-8-8-8s-8,3.6-8,8S291.8,47.8,296.2,47.8z"/>
	<path class="st0" d="M256.2,422.6h-42.5c-4.1,0-7.5,3.4-7.5,7.5s3.4,7.5,7.5,7.5h42.5c4.1,0,7.5-3.4,7.5-7.5
		S260.4,422.6,256.2,422.6z"/>
	<path class="st0" d="M213.8,47.4h42.5c4.1,0,7.5-3.4,7.5-7.5s-3.4-7.5-7.5-7.5h-42.5c-4.1,0-7.5,3.4-7.5,7.5S209.6,47.4,213.8,47.4
		z"/>
	<path class="st0" d="M229,310c1.4,1.9,3.6,3,6,3s4.6-1.1,6-3l77.6-102.6c7.1-9.4,10.9-20.7,10.9-32.5c0-29.7-24.2-53.9-53.9-53.9
		c-15.8,0-30.5,6.9-40.7,18.5c-9.8-11.3-24.3-18.5-40.5-18.5c-29.7,0-53.9,24.2-53.9,53.9c0,11.8,3.8,23.1,10.9,32.5L229,310z
		 M194.4,136c21.2,0,38.5,17.3,38.5,38.5c0,4.1,3.4,7.5,7.5,7.5s7.5-3.4,7.5-7.5c0-7.7-1.6-14.9-4.5-21.5c7.2-10.6,19.2-17,32.1-17
		c21.5,0,38.9,17.5,38.9,38.9c0,8.5-2.7,16.7-7.9,23.5L235,293.1l-71.6-94.7c-5.1-6.8-7.9-14.9-7.9-23.5
		C155.5,153.5,173,136,194.4,136z"/>
	<path class="st0" d="M322,334H148c-4.1,0-7.5,3.4-7.5,7.5s3.4,7.5,7.5,7.5h174c4.1,0,7.5-3.4,7.5-7.5S326.1,334,322,334z"/>
</g>
</svg>
