<?xml version="1.0" standalone="no"?>
<!DOCTYPE svg PUBLIC "-//W3C//DTD SVG 20010904//EN"
 "http://www.w3.org/TR/2001/REC-SVG-20010904/DTD/svg10.dtd">
<svg version="1.0" xmlns="http://www.w3.org/2000/svg"
 width="200.000000pt" height="200.000000pt" viewBox="0 0 200.000000 200.000000"
 preserveAspectRatio="xMidYMid meet">
<metadata>
Created by potrace 1.11, written by Peter Selinger 2001-2013
</metadata>
<g transform="translate(0.000000,200.000000) scale(0.100000,-0.100000)"
fill="#000000" stroke="none">
<path d="M861 1569 c-217 -37 -432 -226 -490 -434 -65 -229 -1 -471 165 -630
110 -106 243 -155 426 -156 101 0 143 15 182 65 30 40 96 159 96 174 0 7 -59
11 -178 14 l-178 3 -66 33 c-82 40 -149 111 -178 190 -18 46 -21 73 -18 142 3
73 9 94 38 148 53 99 137 161 249 182 30 5 195 10 367 10 l312 0 29 24 c16 13
48 64 70 113 68 144 113 128 -362 129 -225 1 -434 -2 -464 -7z"/>
<path d="M915 1096 c-17 -7 -45 -30 -63 -50 -27 -32 -32 -44 -32 -90 0 -65 27
-110 85 -140 36 -19 57 -21 220 -21 213 0 240 8 289 91 28 48 77 156 91 202
l6 22 -283 0 c-211 -1 -291 -4 -313 -14z"/>
</g>
</svg>
